<svg width="180" height="180" viewBox="0 0 180 180" xmlns="http://www.w3.org/2000/svg">
  <defs>
    <linearGradient id="blueGradient" x1="0%" y1="0%" x2="100%" y2="100%">
      <stop offset="0%" style="stop-color:#4FC3F7;stop-opacity:1" />
      <stop offset="100%" style="stop-color:#1976D2;stop-opacity:1" />
    </linearGradient>
  </defs>
  
  <!-- Background -->
  <rect width="180" height="180" fill="#0D1421" rx="28"/>
  
  <!-- Speed lines -->
  <rect x="28" y="70" width="21" height="3" fill="url(#blueGradient)" rx="1.5"/>
  <rect x="28" y="77" width="28" height="3" fill="url(#blueGradient)" rx="1.5"/>
  <rect x="28" y="85" width="35" height="3" fill="url(#blueGradient)" rx="1.5"/>
  
  <!-- Running figure with kettlebell -->
  <!-- Kettlebell handle (head and shoulders) -->
  <path d="M98 40 C 98 35, 105 28, 112 28 C 119 28, 126 35, 126 40 C 126 45, 119 52, 112 52 C 105 52, 98 45, 98 40 Z" fill="url(#blueGradient)"/>
  
  <!-- Kettlebell ball (head) -->
  <circle cx="112" cy="40" r="14" fill="url(#blueGradient)"/>
  
  <!-- Body (torso) -->
  <ellipse cx="112" cy="70" rx="9" ry="22" fill="url(#blueGradient)"/>
  
  <!-- Left arm (forward) -->
  <ellipse cx="98" cy="63" rx="5" ry="14" fill="url(#blueGradient)" transform="rotate(-20 98 63)"/>
  
  <!-- Right arm (back) -->
  <ellipse cx="126" cy="67" rx="5" ry="14" fill="url(#blueGradient)" transform="rotate(20 126 67)"/>
  
  <!-- Left leg (forward) -->
  <ellipse cx="105" cy="98" rx="7" ry="22" fill="url(#blueGradient)" transform="rotate(-15 105 98)"/>
  
  <!-- Right leg (back) -->
  <ellipse cx="119" cy="102" rx="7" ry="22" fill="url(#blueGradient)" transform="rotate(15 119 102)"/>
  
  <!-- Left foot -->
  <ellipse cx="98" cy="125" rx="9" ry="5" fill="url(#blueGradient)"/>
  
  <!-- Right foot -->
  <ellipse cx="126" cy="129" rx="9" ry="5" fill="url(#blueGradient)"/>
</svg>