<svg width="180" height="180" viewBox="0 0 180 180" fill="none" xmlns="http://www.w3.org/2000/svg">
  <!-- Fondo para Apple (más pequeño para evitar clipping) -->
  <rect width="180" height="180" rx="40" fill="url(#gradient)" />
  
  <!-- Definiciones de gradientes -->
  <defs>
    <linearGradient id="gradient" x1="0%" y1="0%" x2="100%" y2="100%">
      <stop offset="0%" style="stop-color:#00D4FF;stop-opacity:1" />
      <stop offset="50%" style="stop-color:#0099FF;stop-opacity:1" />
      <stop offset="100%" style="stop-color:#0066CC;stop-opacity:1" />
    </linearGradient>
    
    <linearGradient id="runner-gradient" x1="0%" y1="0%" x2="100%" y2="100%">
      <stop offset="0%" style="stop-color:#FFFFFF;stop-opacity:0.95" />
      <stop offset="50%" style="stop-color:#E6F7FF;stop-opacity:0.9" />
      <stop offset="100%" style="stop-color:#CCE7FF;stop-opacity:0.85" />
    </linearGradient>
    
    <linearGradient id="speed-lines" x1="0%" y1="50%" x2="100%" y2="50%">
      <stop offset="0%" style="stop-color:#00FFFF;stop-opacity:0.8" />
      <stop offset="100%" style="stop-color:#00FFFF;stop-opacity:0" />
    </linearGradient>
  </defs>
  
  <!-- Líneas de velocidad -->
  <rect x="25" y="70" width="20" height="2" rx="1" fill="url(#speed-lines)" />
  <rect x="20" y="77" width="28" height="2" rx="1" fill="url(#speed-lines)" />
  <rect x="15" y="84" width="35" height="2" rx="1" fill="url(#speed-lines)" />
  <rect x="20" y="91" width="28" height="2" rx="1" fill="url(#speed-lines)" />
  <rect x="25" y="98" width="20" height="2" rx="1" fill="url(#speed-lines)" />
  
  <!-- Figura del runner (centrada) -->
  <g transform="translate(70,35)" fill="url(#runner-gradient)">
    <!-- Cabeza -->
    <ellipse cx="18" cy="14" rx="12" ry="13" />
    
    <!-- Torso -->
    <path d="M 5 26 Q 5 24 6 24 L 28 24 Q 30 24 30 26 L 30 63 Q 30 67 28 67 L 6 67 Q 5 67 5 63 Z" />
    
    <!-- Brazo izquierdo -->
    <path d="M 6 32 Q 1 30 -3 34 L -5 42 Q -6 46 -5 47 Q -3 49 -1 47 L 3 38 Q 5 35 6 34 Z" />
    
    <!-- Brazo derecho -->
    <path d="M 28 30 Q 34 28 40 32 L 44 40 Q 46 44 44 46 Q 42 47 40 46 L 32 37 Q 30 34 28 32 Z" />
    
    <!-- Pierna izquierda -->
    <path d="M 10 65 Q 8 71 12 77 L 16 91 Q 18 97 20 97 Q 22 97 20 91 L 16 77 Q 14 71 12 65 Z" />
    
    <!-- Pierna derecha -->
    <path d="M 22 65 Q 24 74 30 84 L 37 98 Q 39 104 41 104 Q 43 104 41 98 L 34 84 Q 28 74 24 65 Z" />
    
    <!-- Pie izquierdo -->
    <ellipse cx="20" cy="100" rx="5" ry="3" />
    
    <!-- Pie derecho -->
    <ellipse cx="41" cy="107" rx="6" ry="3" />
  </g>
  
  <!-- Efecto de sombra -->
  <ellipse cx="105" cy="147" rx="28" ry="5" fill="rgba(0,0,0,0.2)" />
</svg>
